{"title":"99 Days - Updated","uid":10168341,"size":603684766,"categoryP":"video","categoryS":"other","magnet":"?xt=urn:btih:cd0d7e37f2dce159355516e432521236a810b5c1&amp;dn=99+Days+-+Updated&amp;tr=udp%3A%2F%2Ftracker.openbittorrent.com%3A80&amp;tr=udp%3A%2F%2Fopen.demonii.com%3A1337&amp;tr=udp%3A%2F%2Ftracker.coppersurfer.tk%3A6969&amp;tr=udp%3A%2F%2Fexodus.desync.com%3A6969","seeders":1,"leechers":0,"uploader":"encha277","files":-1,"time":1400373394,"description":"[b]Detail:[/b]\nTitle: 99 Days\nGenre: Drama/Gay Interest\nRelease Date: 30 Nov 2008 (Hong Kong)\nRuntime: 8 Episodes - 13-23 minutes each\nCountry: China (Hong Kong)\nLanguage: Cantonese\nSubtitles: English\n\n[b]EPISODES:[/b]\n8 episodes; 13-23 minutes each\n\n[b]MAIN CAST:[/b]\nZeon Chang as Chris/Lok (20 years old)\nBosco Jiu as Tom/Chun (16 years old)\nTommy Wong as Don (16 years old)\nNorth Chalk as Mike (28 years old)\nKing Wong as Jerry (16 years old)\nPhilip To as Will (19 years old)\nBerry Lee as Ben (33 years old)\nLilian Ng as Dora (25 years old)\n\n[b]Plot:[/b]\nOn 1 December the World Aids Day, while Ben was leading voluntary workers to distribute red ribbons, Mike thought it is a good chance to meet guys.  He met a handsome guy named Chris and hit on him; Don was hurt in a fight when he came out as gay, making Tom hide his sexual attitude even from his best friend; Mike called for a repair for his broken kitchen facet, then to his surprise, he had met the plumber before\n\nA character study following 7 gay men and 1 woman.  Overall themes around acceptance, coming of age and safe sex.  Some parts do seem somewhat like an after school special, but there is a redeeming story at the heart of the series.  Although dealing with gay content, the series avoids being gratuitous and sexual situations are mostly discussed rather than portrayed\n\n[b]General Info:[/b]\nFormat                                   : MPEG-4\nFormat profile                           : Base Media / Version 2\nCodec ID                                 : mp42\nFile size                                : 38.3 MiB\nDuration                                 : 9mn 58s\nOverall bit rate mode                    : Variable\nOverall bit rate                         : 537 Kbps\n\n[b]Video[/b]\nID                                       : 1\nFormat                                   : AVC\nFormat/Info                              : Advanced Video Codec\nFormat profile                           : &lt;a class=&quot;__cf_email__&quot; href=&quot;/cdn-cgi/l/email-protection&quot; data-cfemail=&quot;3e7c5f4d5b5257505b7e720d100e&quot;&gt;[email&amp;#160;protected]&lt;/a&gt;&lt;script cf-hash='f9e31' type=&quot;text/javascript&quot;&gt;\n/* &lt;![CDATA[ */!function(){try{var t=&quot;currentScript&quot;in document?document.currentScript:function(){for(var t=document.getElementsByTagName(&quot;script&quot;),e=t.length;e--;)if(t[e].getAttribute(&quot;cf-hash&quot;))return t[e]}();if(t&amp;&amp;t.previousSibling){var e,r,n,i,c=t.previousSibling,a=c.getAttribute(&quot;data-cfemail&quot;);if(a){for(e=&quot;&quot;,r=parseInt(a.substr(0,2),16),n=2;a.length-n;n+=2)i=parseInt(a.substr(n,2),16)^r,e+=String.fromCharCode(i);e=document.createTextNode(e),c.parentNode.replaceChild(e,c)}}}catch(u){}}();/* ]]&gt; */&lt;/script&gt;\nFormat settings, CABAC                   : No\nFormat settings, ReFrames                : 1 frame\nCodec ID                                 : avc1\nCodec ID/Info                            : Advanced Video Coding\nDuration                                 : 9mn 58s\nBit rate                                 : 438 Kbps\nMaximum bit rate                         : 1 326 Kbps\nWidth                                    : 640 pixels\nHeight                                   : 360 pixels\nDisplay aspect ratio                     : 16:9\nOriginal display aspect ratio            : 16:9\nFrame rate mode                          : Constant\nFrame rate                               : 25.000 fps\nColor space                              : YUV\nChroma subsampling                       : 4:2:0\nBit depth                                : 8 bits\nScan type                                : Progressive\nBits/(Pixel*Frame)                       : 0.076\nStream size                              : 31.3 MiB (82%)\nTagged date                              : UTC 2014-02-23 04:47:06\n\n[b]Audio[/b]\nID                                       : 2\nFormat                                   : AAC\nFormat/Info                              : Advanced Audio Codec\nFormat profile                           : LC\nCodec ID                                 : 40\nDuration                                 : 9mn 58s\nBit rate mode                            : Variable\nBit rate                                 : 96.0 Kbps\nMaximum bit rate                         : 103 Kbps\nChannel(s)                               : 2 channels\nChannel positions                        : Front: L R\nSampling rate                            : 44.1 KHz\nCompression mode                         : Lossy\nStream size                              : 6.85 MiB (18%)","torrent":{"xt":"urn:btih:cd0d7e37f2dce159355516e432521236a810b5c1","amp;dn":"99+Days+-+Updated","amp;tr":["udp%3A%2F%2Ftracker.openbittorrent.com%3A80","udp%3A%2F%2Fopen.demonii.com%3A1337","udp%3A%2F%2Ftracker.coppersurfer.tk%3A6969","udp%3A%2F%2Fexodus.desync.com%3A6969"],"infoHash":"cd0d7e37f2dce159355516e432521236a810b5c1","infoHashBuffer":{"type":"Buffer","data":[205,13,126,55,242,220,225,89,53,85,22,228,50,82,18,54,168,16,181,193]},"announce":[],"urlList":[]}}